<svg xmlns="http://www.w3.org/2000/svg" width="172" height="100" viewBox="0 0 302.9550488599349 175.45993498772015" class="css-1j8o68f"><defs id="SvgjsDefs1550"><linearGradient id="SvgjsLinearGradient1553"><stop id="SvgjsStop1554" stop-color="#8f5e25" offset="0"></stop><stop id="SvgjsStop1555" stop-color="#fbf4a1" offset="0.5"></stop><stop id="SvgjsStop1556" stop-color="#8f5e25" offset="1"></stop></linearGradient></defs><g id="SvgjsG1551" featurekey="ewgXDI-0" transform="matrix(10.375172635078984,0,0,10.375172635078984,0,-32.251025915938236)" fill="url(#SvgjsLinearGradient1553)"><path d="M1.18 6.74 l2.26 0 l3.48 7.24 l0.42 -0.86 l-3.44 -7.12 l-3.9 0 l6.74 14 l0.34 0 l6.42 -13.26 l0.7 0 l-6.44 13.26 l0.82 0 l6.8 -14 l-2.34 0 l-6.12 12.6 z M6.94 17.22 l5.42 -11.22 l-0.84 0 l-4.58 9.52 l-3.94 -8.14 l-0.82 0 z M18.179999999999996 19.3 l0 -13.3 l-0.72 0 l0 14.02 l3.5 -0.02 l0 -5.72 l5.48 -6.94 l-0.92 0 l-5.3 6.68 l0 5.28 l-2.04 0 z M20.199999999999996 10.64 l0.74 -0.92 l0 -3.72 l-2.12 0 l0 6.42 l0.72 -0.92 l0 -4.76 l0.66 0 l0 3.9 z M29.18 6 l-4.42 0 l-5.94 7.62 l0 5.16 l0.72 0 l0 -4.92 l5.56 -7.12 l2.6 0 l-5.64 7.18 l3.6 4.86 l0.9 0 l-3.58 -4.86 z M27.759999999999998 19.3 l-2.54 0 l-3.58 -4.84 l0 1.2 l3.22 4.34 l4.34 0 l-4.9 -6.58 l-0.46 0.58 z"></path></g></svg>